<?xml version="1.0" standalone="no"?>
<!DOCTYPE svg PUBLIC "-//W3C//DTD SVG 20010904//EN"
 "http://www.w3.org/TR/2001/REC-SVG-20010904/DTD/svg10.dtd">
<svg version="1.0" xmlns="http://www.w3.org/2000/svg"
 width="256.000000pt" height="256.000000pt" viewBox="0 0 256.000000 256.000000"
 preserveAspectRatio="xMidYMid meet">
<metadata>
Created by potrace 1.14, written by Peter Selinger 2001-2017
</metadata>
<g transform="translate(0.000000,256.000000) scale(0.100000,-0.100000)"
fill="#000000" stroke="none">
<path d="M1403 2418 c-6 -13 -14 -33 -16 -46 -5 -19 -2 -22 24 -20 16 1 30 6
30 10 1 4 2 14 3 21 3 15 -15 57 -24 57 -4 0 -12 -10 -17 -22z"/>
<path d="M1405 2320 c-4 -6 -11 -7 -17 -4 -7 4 -8 -5 -3 -27 8 -37 19 -48 44
-44 18 2 19 18 3 58 -12 29 -17 32 -27 17z"/>
<path d="M1412 2193 c-7 -10 -10 -12 -6 -4 4 8 3 12 -2 8 -5 -3 -11 -40 -13
-82 l-2 -76 29 15 c16 8 31 13 34 11 2 -3 4 19 3 48 -3 81 -4 89 -14 83 -5 -4
-11 -2 -13 4 -2 6 -9 2 -16 -7z"/>
<path d="M743 2125 c0 -8 4 -15 9 -15 5 0 7 -3 5 -7 -3 -5 5 -16 17 -25 11
-10 35 -29 51 -43 25 -21 66 -33 78 -22 2 1 19 -16 37 -38 19 -22 47 -52 62
-68 16 -15 28 -32 28 -37 0 -6 5 -10 10 -10 6 0 10 -5 10 -10 0 -6 9 -20 20
-32 14 -16 17 -25 9 -39 -13 -25 -13 -127 -1 -160 6 -15 8 -29 6 -32 -8 -7
-44 4 -44 14 0 5 -3 8 -7 7 -5 0 -25 6 -46 16 -35 16 -39 15 -79 -4 -23 -11
-44 -18 -46 -15 -3 3 0 5 5 5 6 0 10 8 8 18 -2 9 -4 22 -4 27 -1 6 -15 16 -31
22 -23 9 -29 8 -24 0 5 -8 2 -8 -7 1 -7 6 -21 12 -32 12 -10 0 -15 5 -12 11 4
6 1 10 -6 8 -28 -3 -60 1 -56 9 3 4 -5 7 -18 7 -13 0 -21 -3 -18 -7 2 -5 0 -8
-6 -8 -5 0 -11 5 -13 11 -4 12 -72 21 -94 12 -25 -9 -12 -42 16 -40 3 0 16 -5
29 -12 19 -11 22 -11 15 1 -6 10 -5 11 8 1 8 -7 18 -10 21 -7 3 3 12 2 19 -2
7 -5 22 -10 33 -12 35 -6 39 -8 102 -40 34 -18 69 -32 78 -32 8 0 15 -3 15 -8
0 -4 14 -13 31 -21 16 -7 40 -30 53 -50 13 -20 44 -55 70 -79 25 -23 46 -47
46 -53 0 -6 4 -7 10 -4 5 3 7 0 4 -9 -7 -17 -22 -21 -184 -41 -39 -5 -100 -27
-95 -34 2 -5 -11 -12 -30 -15 -20 -4 -52 -23 -76 -46 -23 -22 -47 -37 -52 -33
-5 3 -12 1 -16 -4 -3 -5 -31 -24 -61 -43 -30 -19 -58 -38 -61 -43 -4 -5 -12
-6 -19 -2 -8 5 -11 4 -7 -2 4 -6 -6 -13 -22 -16 -16 -3 -35 -12 -42 -20 -14
-13 -43 -28 -66 -33 -6 -1 -24 -14 -40 -29 -15 -15 -22 -24 -14 -20 10 6 12 4
7 -4 -5 -7 -10 -10 -13 -7 -10 10 -78 -25 -100 -51 -62 -72 17 -70 94 2 34 32
46 39 64 37 4 -1 17 10 29 23 13 14 29 25 37 25 7 0 13 3 13 8 0 11 88 44 100
37 5 -3 10 -1 10 4 0 6 7 11 15 11 8 0 15 5 15 11 0 5 5 7 10 4 6 -3 10 -2 10
3 0 5 14 15 30 22 17 7 30 17 30 22 0 5 5 6 10 3 6 -3 10 -2 10 3 0 9 40 24
56 21 4 0 10 4 13 9 8 12 72 46 91 47 8 1 26 6 40 12 36 15 110 24 110 13 0
-5 -19 -22 -42 -38 -24 -17 -56 -42 -73 -56 -16 -14 -34 -26 -38 -26 -5 0 -5
-4 -2 -10 3 -5 2 -10 -4 -10 -10 0 -51 -70 -58 -100 -6 -24 -6 -132 0 -167 7
-37 42 -108 65 -133 36 -37 170 -42 257 -9 88 33 153 116 190 242 9 31 20 57
25 57 12 0 20 -77 14 -150 -2 -36 -6 -84 -7 -107 -1 -22 -5 -39 -9 -36 -5 2
-8 -4 -9 -14 -1 -22 -4 -37 -18 -89 -6 -23 -9 -55 -7 -73 2 -17 0 -33 -3 -36
-4 -2 -8 -20 -9 -41 -2 -20 -11 -61 -21 -89 -14 -39 -16 -56 -8 -64 8 -8 8
-11 -2 -11 -7 0 -9 -5 -6 -10 3 -6 1 -10 -5 -10 -26 0 -43 -111 -21 -133 8 -8
16 -5 28 13 20 28 26 50 27 100 1 19 9 43 19 52 10 11 17 33 17 58 0 22 4 40
8 40 5 0 9 6 9 13 0 6 6 39 12 72 7 33 15 74 18 90 3 17 9 37 14 46 4 9 6 19
2 22 -3 4 0 13 6 21 8 10 9 16 1 21 -6 3 -8 11 -5 16 4 5 1 9 -5 9 -6 0 3 12
20 27 28 23 31 31 28 69 -1 23 0 40 5 37 4 -2 7 -3 7 -1 1 2 3 19 6 39 3 19
-2 79 -10 132 -9 53 -16 103 -16 111 0 20 34 13 129 -29 44 -19 84 -35 89 -35
5 0 20 -13 33 -29 13 -16 27 -27 31 -25 4 3 8 0 8 -6 0 -6 4 -9 8 -6 5 3 9 -1
9 -9 0 -15 53 -83 66 -84 10 -1 38 -28 37 -36 -1 -18 2 -24 20 -45 11 -12 17
-27 14 -31 -3 -5 0 -9 6 -9 6 0 8 -4 5 -10 -3 -5 5 -22 19 -37 20 -21 28 -24
39 -15 11 10 12 19 3 47 -6 19 -15 35 -19 35 -5 0 -6 4 -3 9 3 5 -1 11 -9 15
-9 3 -15 18 -15 37 0 18 -3 30 -6 26 -8 -7 -34 17 -34 32 0 6 -5 11 -11 11 -5
0 -8 3 -5 8 10 16 -51 75 -80 77 -16 2 -30 3 -31 4 -1 1 2 15 7 32 8 28 6 35
-25 66 -19 19 -35 38 -35 42 0 4 -13 15 -30 24 -31 19 -39 36 -17 38 52 4 80
9 109 23 19 9 45 18 58 21 13 2 33 14 45 25 12 11 28 18 36 15 8 -3 37 -7 64
-9 28 -2 68 -10 90 -18 22 -8 47 -14 55 -13 8 1 24 -3 35 -9 11 -6 22 -10 25
-11 3 0 19 -14 36 -30 29 -29 62 -46 49 -25 -10 17 4 11 25 -10 13 -13 33 -20
59 -20 50 0 59 13 25 35 -33 21 -55 25 -71 13 -15 -12 -33 -2 -33 18 0 24 -38
54 -69 54 -18 0 -31 6 -35 16 -4 9 -9 14 -12 11 -4 -3 -15 3 -27 14 -11 10
-28 19 -36 20 -9 0 -26 2 -38 5 -14 2 -23 -1 -23 -8 0 -7 -15 2 -32 19 -31 29
-37 31 -91 27 -31 -2 -76 -11 -100 -19 -47 -16 -77 -19 -77 -7 0 4 23 25 50
46 28 21 50 41 50 45 0 5 20 29 45 55 25 27 45 56 45 66 0 11 18 29 44 44 37
22 55 47 56 79 0 4 -20 7 -45 7 -25 0 -45 -4 -45 -9 0 -5 -8 -12 -18 -15 -21
-7 -102 -80 -102 -93 0 -14 -57 -76 -63 -67 -8 14 5 164 14 164 18 0 9 48 -8
52 -20 4 -53 -20 -53 -37 0 -17 -45 -56 -54 -48 -4 5 -16 9 -27 9 -35 3 -37 4
-32 24 3 11 1 20 -5 20 -13 0 -10 17 12 59 17 32 17 34 -1 52 -19 19 -19 19
-40 0 -11 -11 -23 -18 -26 -15 -2 2 -10 -2 -17 -11 -7 -8 -19 -15 -27 -15 -8
0 -28 -7 -44 -16 -35 -18 -53 -9 -25 12 11 8 17 14 13 14 -4 0 9 15 28 34 20
18 37 43 38 55 1 11 4 21 7 21 4 0 7 6 8 13 0 6 5 30 11 51 11 43 2 70 -25 80
-22 8 -49 -17 -51 -46 -4 -45 -13 -65 -37 -78 -14 -7 -30 -25 -36 -41 -7 -16
-22 -39 -34 -51 -27 -28 -54 -109 -54 -160 0 -62 -21 -78 -41 -30 -7 17 -10
52 -7 83 10 100 -47 219 -104 219 -13 0 -20 6 -18 15 5 24 -71 86 -99 81 -13
-3 -21 -1 -18 5 4 5 1 9 -5 9 -6 0 -9 4 -6 9 6 8 -16 18 -59 27 -37 8 -47 14
-42 27 4 13 -44 47 -67 47 -7 0 -13 -7 -13 -15z"/>
<path d="M1512 1853 c3 -16 34 -27 50 -17 14 9 -12 34 -34 34 -13 0 -18 -6
-16 -17z"/>
<path d="M2300 1830 c-8 -5 -15 -15 -16 -22 0 -14 15 -38 25 -38 12 0 61 47
61 59 0 13 -49 14 -70 1z"/>
<path d="M2183 1793 c-7 -3 -13 -15 -13 -29 0 -20 5 -24 28 -23 47 2 62 10 62
30 0 10 -6 19 -12 20 -7 0 -22 2 -33 4 -11 1 -26 1 -32 -2z"/>
<path d="M1806 1775 c4 -8 10 -12 15 -9 11 6 2 24 -11 24 -5 0 -7 -7 -4 -15z"/>
<path d="M1724 1763 c-8 -14 -6 -22 7 -35 16 -15 18 -15 31 0 18 21 12 52 -10
52 -10 0 -22 -8 -28 -17z"/>
<path d="M2056 1745 c-37 -13 -71 -26 -74 -30 -3 -3 -6 -19 -7 -35 -2 -37 13
-38 76 -10 76 36 94 48 97 69 3 16 -1 19 -14 14 -12 -4 -15 -3 -10 5 9 15 13
16 -68 -13z"/>
</g>
</svg>
